#!OML:ASF H:\Dans Jumps\Project 1\Capture day 1\Session 1\subject.ASF
:FULLY-SPECIFIED
:DEGREES
296
root 0.415129 16.4203 -7.56138 1.50723 0.91413 -1.05828
lowerback 5.9678 0.274968 -0.676356
upperback 5.37113 0.318219 1.85107
thorax 2.17771 0.105062 2.2734
lowerneck -12.4667 -0.35756 -1.90483
upperneck 34.762 -0.571341 1.65757
head 13.9011 -0.265716 0.918584
rclavicle -1.39149e-015 -2.10712e-014
rhumerus -17.649 -15.2731 -80.6423
rradius 21.4477
rwrist 40.1973
rhand -15.7143 -22.2905
rfingers 7.12502
rthumb 10.4758 -52.0095
lclavicle -1.39149e-015 -2.10712e-014
lhumerus -13.3733 5.02708 88.493
lradius 18.8961
lwrist 8.5321
lhand -26.9347 -6.24742
lfingers 7.12502
lthumb -0.35702 23.732
rfemur -27.8527 -4.44326 18.3986
rtibia 52.0575
rfoot -23.9388 -3.37419
rtoes -0.0441949
lfemur -27.9109 6.93666 -19.4098
ltibia 50.5083
lfoot -20.2155 9.96143
ltoes -1.94978
297
root 0.419803 16.4714 -7.5282 1.81211 0.756888 -1.03945
lowerback 5.83525 0.238154 -0.681666
upperback 5.38549 0.268886 1.80152
thorax 2.26856 0.0801726 2.22774
lowerneck -12.4933 -0.330616 -1.84973
upperneck 34.5593 -0.545792 1.65133
head 13.8152 -0.249055 0.907748
rclavicle 3.77691e-015 1.27222e-014
rhumerus -18.9505 -17.0579 -79.8064
rradius 20.7945
rwrist 41.2075
rhand -15.3002 -22.4088
rfingers 7.12502
rthumb 10.8752 -52.1072
lclavicle 3.77691e-015 1.27222e-014
lhumerus -14.9862 7.44029 87.5757
lradius 17.4761
lwrist 5.91825
lhand -26.3068 -5.73989
lfingers 7.12502
lthumb 0.249406 24.2397
rfemur -27.6919 -4.24744 18.392
rtibia 51.3368
rfoot -23.6783 -3.38594
rtoes 0.28789
lfemur -27.661 6.96053 -19.4416
ltibia 49.7105
lfoot -20.0307 9.86036
ltoes -1.73338
298
root 0.424556 16.5236 -7.49604 2.06748 0.598021 -1.01498
lowerback 5.76729 0.201661 -0.689276
upperback 5.41074 0.220086 1.74563
thorax 2.33477 0.0557343 2.17648
lowerneck -12.51 -0.302499 -1.79078
upperneck 34.3302 -0.517346 1.63916
head 13.7158 -0.231429 0.894033
rclavicle -4.96962e-016 -3.18055e-015
rhumerus -20.319 -18.9111 -78.8407
rradius 20.1938
rwrist 42.126
rhand -15.0714 -22.5898
rfingers 7.12502
rthumb 11.0959 -52.2765
lclavicle -4.96962e-016 -3.18055e-015
lhumerus -16.701 9.64064 86.5212
lradius 16.2568
lwrist 3.4139
lhand -25.8786 -5.34029
lfingers 7.12502
lthumb 0.662984 24.6384
rfemur -27.4576 -4.08194 18.368
rtibia 50.5708
rfoot -23.3992 -3.33863
rtoes 0.686703
lfemur -27.3333 6.99005 -19.4742
ltibia 48.8632
lfoot -19.8233 9.73968
ltoes -1.51226
299
root 0.428963 16.5756 -7.46496 2.29278 0.449006 -0.997708
lowerback 5.74631 0.16354 -0.688524
upperback 5.43477 0.169633 1.68696
thorax 2.37359 0.0310294 2.11746
lowerneck -12.5172 -0.273831 -1.72558
upperneck 34.0974 -0.488855 1.62425
head 13.6133 -0.213382 0.878139
rclavicle 3.97569e-016 -2.38542e-015
rhumerus -21.7683 -20.7938 -77.739
rradius 19.6464
rwrist 42.9842
rhand -14.9736 -22.8535
rfingers 7.12502
rthumb 11.1903 -52.5351
lclavicle 3.97569e-016 -2.38542e-015
lhumerus -18.5219 11.5419 85.3695
lradius 15.2332
lwrist 1.07778
lhand -25.6676 -5.07117
lfingers 7.12502
lthumb 0.866758 24.9068
rfemur -27.178 -3.95254 18.3446
rtibia 49.7753
rfoot -23.1116 -3.24053
rtoes 1.12673
lfemur -26.9679 7.02024 -19.495
ltibia 47.9922
lfoot -19.6034 9.59643
ltoes -1.25824
300
root 0.432676 16.6265 -7.43499 2.51413 0.32173 -0.995706
lowerback 5.7431 0.11898 -0.678217
upperback 5.45048 0.111068 1.63238
thorax 2.39411 0.00271347 2.05749
lowerneck -12.521 -0.246216 -1.66062
upperneck 33.8769 -0.460396 1.605
head 13.5162 -0.196024 0.860747
rclavicle -5.96354e-016 -7.95139e-015
rhumerus -23.2973 -22.6661 -76.4945
rradius 19.1493
rwrist 43.8468
rhand -14.9707 -23.1475
rfingers 7.12502
rthumb 11.193 -52.8289
lclavicle -5.96354e-016 -7.95139e-015
lhumerus -20.4246 13.0866 84.1705
lradius 14.3995
lwrist -1.00625
lhand -25.6372 -4.85631
lfingers 7.12502
lthumb 0.896164 25.1216
rfemur -26.8892 -3.8691 18.3345
rtibia 48.9663
rfoot -22.8242 -3.09562
rtoes 1.59893
lfemur -26.6089 7.04177 -19.4982
ltibia 47.1219
lfoot -19.3768 9.44024
ltoes -0.988059
301
root 0.435505 16.676 -7.40614 2.75495 0.223009 -1.0037
lowerback 5.73137 0.0675522 -0.665883
upperback 5.45107 0.0435962 1.58103
thorax 2.40389 -0.0298487 1.99994
lowerneck -12.5216 -0.2212 -1.60202
upperneck 33.6758 -0.436832 1.5937
head 13.4276 -0.180623 0.847147
rclavicle 4.07509e-015 2.82274e-014
rhumerus -24.9085 -24.4552 -75.1212
rradius 18.7139
rwrist 44.7092
rhand -15.021 -23.4831
rfingers 7.12502
rthumb 11.1445 -53.1672
lclavicle 4.07509e-015 2.82274e-014
lhumerus -22.3783 14.2124 82.9849
lradius 13.7582
lwrist -2.73373
lhand -25.6692 -4.55792
lfingers 7.12502
lthumb 0.865226 25.4201
rfemur -26.6241 -3.83569 18.3352
rtibia 48.1581
rfoot -22.5424 -2.90943
rtoes 2.09005
lfemur -26.2905 7.05052 -19.4936
ltibia 46.2667
lfoot -19.152 9.27818
ltoes -0.699399
302
root 0.437125 16.7237 -7.37845 3.02721 0.155104 -1.03208
lowerback 5.69505 0.0103278 -0.648049
upperback 5.43401 -0.0313472 1.54013
thorax 2.40915 -0.0660023 1.95029
lowerneck -12.524 -0.198996 -1.5498
upperneck 33.5042 -0.417632 1.58804
head 13.3529 -0.167228 0.836601
rclavicle -1.98785e-015 3.77691e-015
rhumerus -26.5954 -26.1236 -73.6276
rradius 18.3418
rwrist 45.5871
rhand -15.0937 -23.8354
rfingers 7.12502
rthumb 11.0744 -53.5232
lclavicle -1.98785e-015 3.77691e-015
lhumerus -24.3468 14.8729 81.883
lradius 13.2963
lwrist -4.02829
lhand -25.665 -4.15377
lfingers 7.12502
lthumb 0.869326 25.8242
rfemur -26.4036 -3.8447 18.3635
rtibia 47.362
rfoot -22.2651 -2.70642
rtoes 2.55526
lfemur -26.033 7.04618 -19.4705
ltibia 45.4366
lfoot -18.9309 9.11656
ltoes -0.398647
303
root 0.437644 16.7694 -7.35192 3.33457 0.120297 -1.06451
lowerback 5.62981 -0.0501347 -0.639329
upperback 5.39925 -0.110823 1.5058
thorax 2.4122 -0.104688 1.91254
lowerneck -12.5215 -0.182345 -1.50891
upperneck 33.3549 -0.406494 1.59128
head 13.2873 -0.157608 0.830606
rclavicle 1.39149e-015 -1.17283e-014
rhumerus -28.3479 -27.6219 -72.042
rradius 18.0446
rwrist 46.4387
rhand -15.1595 -24.1934
rfingers 7.12502
rthumb 11.0109 -53.8846
lclavicle 1.39149e-015 -1.17283e-014
lhumerus -26.2953 15.0367 80.9356
lradius 13.0121
lwrist -4.82964
lhand -25.5244 -3.59186
lfingers 7.12502
lthumb 1.00507 26.3855
rfemur -26.238 -3.89835 18.4033
rtibia 46.5878
rfoot -21.9951 -2.50108
rtoes 2.9609
lfemur -25.8389 7.02387 -19.4482
ltibia 44.6327
lfoot -18.7098 8.96644
ltoes -0.132182
